<?xml version="1.0" encoding="UTF-8" standalone="no"?>
<!-- Created with Inkscape (http://www.inkscape.org/) -->
<svg
   xmlns:dc="http://purl.org/dc/elements/1.1/"
   xmlns:cc="http://web.resource.org/cc/"
   xmlns:rdf="http://www.w3.org/1999/02/22-rdf-syntax-ns#"
   xmlns:svg="http://www.w3.org/2000/svg"
   xmlns="http://www.w3.org/2000/svg"
   xmlns:sodipodi="http://sodipodi.sourceforge.net/DTD/sodipodi-0.dtd"
   xmlns:inkscape="http://www.inkscape.org/namespaces/inkscape"
   id="svg2"
   sodipodi:version="0.32"
   inkscape:version="0.44"
   width="151.85988"
   height="151.85988"
   version="1.0"
   sodipodi:docbase="C:\Documents and Settings\Joan Borràs Comes\Escritorio"
   sodipodi:docname="Quill and ink.svg">
  <metadata
     id="metadata7">
    <rdf:RDF>
      <cc:Work
         rdf:about="">
        <dc:format>image/svg+xml</dc:format>
        <dc:type
           rdf:resource="http://purl.org/dc/dcmitype/StillImage" />
      </cc:Work>
    </rdf:RDF>
  </metadata>
  <defs
     id="defs5" />
  <sodipodi:namedview
     inkscape:window-height="710"
     inkscape:window-width="1024"
     inkscape:pageshadow="2"
     inkscape:pageopacity="0.0"
     guidetolerance="10.0"
     gridtolerance="10.0"
     objecttolerance="10.0"
     borderopacity="1.0"
     bordercolor="#666666"
     pagecolor="#ffffff"
     id="base"
     inkscape:zoom="1"
     inkscape:cx="75.929939"
     inkscape:cy="75.929939"
     inkscape:window-x="-4"
     inkscape:window-y="-4"
     inkscape:current-layer="svg2" />
  <path
     id="path1910"
     d="M 20.382927,148.85388 C 15.003029,148.16236 14.991336,148.14842 15.375994,142.88543 C 15.813941,136.89333 17.052355,127.55395 17.666511,125.61171 C 18.305239,123.59175 20.350833,121.89374 24.794224,119.69508 C 26.752539,118.72608 28.354799,117.66442 28.354799,117.33583 C 28.354799,116.98214 27.507949,116.67713 26.279055,116.58822 L 24.203311,116.43803 L 24.203311,113.01916 L 24.203311,109.60029 L 30.064235,109.46249 C 35.570572,109.33302 35.956118,109.25915 36.4369,108.24146 C 36.718361,107.64569 37.625642,105.83953 38.453082,104.22777 C 39.280517,102.61602 40.856261,99.429148 41.954725,97.14583 C 43.053194,94.862511 44.719601,91.675634 45.657847,90.06388 C 46.596097,88.452126 47.519437,86.803742 47.709712,86.400803 C 47.899987,85.997865 48.623069,84.785425 49.316567,83.706488 C 50.706988,81.543285 50.694583,81.563251 54.318904,75.655777 C 58.801182,68.349867 61.534175,64.940177 73.10987,52.212083 C 80.455986,44.134634 86.176135,38.478062 91.115521,34.406551 C 92.9959,32.856567 97.236723,29.059064 100.53957,25.967657 C 103.84242,22.876249 106.65476,20.456928 106.78922,20.591388 C 106.92368,20.725847 106.24607,22.454263 105.28341,24.43231 C 104.32075,26.410352 103.60236,28.469905 103.68698,29.009085 C 103.78676,29.644864 104.83183,28.00443 106.66047,24.341641 C 109.31491,19.024743 109.67775,18.545955 112.85377,16.169199 C 114.70929,14.780629 118.26972,12.575733 120.76584,11.269429 C 125.88481,8.5904968 129.50678,6.4897841 133.20157,4.0568016 C 137.51721,1.2149961 137.67943,1.9571883 134.11919,8.2551567 C 132.98028,10.269849 131.50101,13.127047 130.83191,14.604489 C 130.16282,16.08193 127.89704,20.477622 125.79685,24.372694 C 121.15259,32.986049 119.95628,35.216419 117.28278,40.246029 C 115.15812,44.243115 113.76355,46.079963 112.22319,46.910201 C 111.74425,47.168346 108.33759,48.432601 104.65283,49.719662 C 100.96807,51.006726 97.034091,52.530473 95.91066,53.105771 C 92.287676,54.961056 92.764926,55.946317 96.443754,54.206316 C 99.724572,52.654568 110.8196,49.042286 111.18442,49.407104 C 111.70937,49.932052 107.20784,55.743998 95.204355,70.039059 C 93.399845,72.188064 90.186349,76.034295 88.063254,78.586239 C 84.049635,83.41058 81.681412,85.408476 79.93196,85.44601 C 79.367275,85.458127 78.245909,85.769953 77.440033,86.138962 L 75.974802,86.809876 L 78.294751,86.849545 C 79.570722,86.871362 80.614699,87.07373 80.614699,87.299254 C 80.614699,87.672707 78.036948,89.863915 72.628185,94.088157 C 67.964922,97.730164 59.857116,101.7988 50.931418,104.97597 C 49.514339,105.48039 46.991788,106.61733 45.325752,107.50249 L 42.296592,109.11188 L 45.704417,109.35608 L 49.112236,109.60029 L 49.112236,113.01916 L 49.112236,116.43803 L 47.280697,116.58962 C 45.41941,116.74366 44.875198,117.59154 46.059672,118.49197 C 46.395454,118.74724 47.769108,119.35421 49.112236,119.8408 C 50.628867,120.39025 52.387168,121.5789 53.752134,122.97747 C 55.854359,125.13144 55.987255,125.44191 56.806725,130.11352 C 57.277933,132.79978 57.805563,137.79273 57.979232,141.20897 L 58.294999,147.42031 L 57.022055,147.90428 C 53.410422,149.27742 28.667093,149.9187 20.382927,148.85388 z "
     style="fill:black" />
</svg>
